<mxfile host="app.diagrams.net" modified="2022-05-13T08:14:27.288Z" agent="5.0 (Macintosh; Intel Mac OS X 10_15_7) AppleWebKit/537.36 (KHTML, like Gecko) Chrome/101.0.4951.64 Safari/537.36" etag="L5ryU4TojIZB4CD_Q1EG" version="18.0.3" type="github">
  <diagram id="kgpKYQtTHZ0yAKxKKP6v" name="Page-1">
    <mxGraphModel dx="1426" dy="705" grid="1" gridSize="10" guides="1" tooltips="1" connect="1" arrows="1" fold="1" page="1" pageScale="1" pageWidth="850" pageHeight="1100" math="0" shadow="0">
      <root>
        <mxCell id="0" />
        <mxCell id="1" parent="0" />
        <mxCell id="3nuBFxr9cyL0pnOWT2aG-1" value="规划前端" style="shape=umlLifeline;perimeter=lifelinePerimeter;container=1;collapsible=0;recursiveResize=0;rounded=0;shadow=0;strokeWidth=1;" parent="1" vertex="1">
          <mxGeometry x="155" y="80" width="100" height="510" as="geometry" />
        </mxCell>
        <mxCell id="3nuBFxr9cyL0pnOWT2aG-2" value="buildingSingle=&gt;dtProject" style="points=[];perimeter=orthogonalPerimeter;rounded=0;shadow=0;strokeWidth=1;align=left;spacingLeft=9;" parent="3nuBFxr9cyL0pnOWT2aG-1" vertex="1">
          <mxGeometry x="45" y="65" width="10" height="65" as="geometry" />
        </mxCell>
        <mxCell id="3nuBFxr9cyL0pnOWT2aG-4" value="" style="points=[];perimeter=orthogonalPerimeter;rounded=0;shadow=0;strokeWidth=1;" parent="3nuBFxr9cyL0pnOWT2aG-1" vertex="1">
          <mxGeometry x="45" y="180" width="10" height="50" as="geometry" />
        </mxCell>
        <mxCell id="G4In2oabSauwJ9rI7CYD-15" value="" style="points=[];perimeter=orthogonalPerimeter;rounded=0;shadow=0;strokeWidth=1;" parent="3nuBFxr9cyL0pnOWT2aG-1" vertex="1">
          <mxGeometry x="45" y="380" width="10" height="30" as="geometry" />
        </mxCell>
        <mxCell id="G4In2oabSauwJ9rI7CYD-20" value="Update building" style="points=[];perimeter=orthogonalPerimeter;rounded=0;shadow=0;strokeWidth=1;verticalAlign=bottom;align=left;spacingLeft=10;" parent="3nuBFxr9cyL0pnOWT2aG-1" vertex="1">
          <mxGeometry x="45" y="460" width="10" height="40" as="geometry" />
        </mxCell>
        <mxCell id="3nuBFxr9cyL0pnOWT2aG-5" value="单体前端" style="shape=umlLifeline;perimeter=lifelinePerimeter;container=1;collapsible=0;recursiveResize=0;rounded=0;shadow=0;strokeWidth=1;" parent="1" vertex="1">
          <mxGeometry x="350" y="80" width="100" height="510" as="geometry" />
        </mxCell>
        <mxCell id="3nuBFxr9cyL0pnOWT2aG-6" value="" style="points=[];perimeter=orthogonalPerimeter;rounded=0;shadow=0;strokeWidth=1;" parent="3nuBFxr9cyL0pnOWT2aG-5" vertex="1">
          <mxGeometry x="45" y="130" width="10" height="50" as="geometry" />
        </mxCell>
        <mxCell id="G4In2oabSauwJ9rI7CYD-8" value="" style="points=[];perimeter=orthogonalPerimeter;rounded=0;shadow=0;strokeWidth=1;" parent="3nuBFxr9cyL0pnOWT2aG-5" vertex="1">
          <mxGeometry x="37.5" y="230" width="25" height="150" as="geometry" />
        </mxCell>
        <mxCell id="G4In2oabSauwJ9rI7CYD-11" value="" style="points=[];perimeter=orthogonalPerimeter;rounded=0;shadow=0;strokeWidth=1;align=right;spacingLeft=9;horizontal=1;spacingRight=12;" parent="3nuBFxr9cyL0pnOWT2aG-5" vertex="1">
          <mxGeometry x="30" y="265" width="15" height="90" as="geometry" />
        </mxCell>
        <mxCell id="3nuBFxr9cyL0pnOWT2aG-8" value="open in iframe" style="verticalAlign=middle;endArrow=block;entryX=0;entryY=0;shadow=0;strokeWidth=1;exitX=1.2;exitY=1.015;exitDx=0;exitDy=0;exitPerimeter=0;" parent="1" source="3nuBFxr9cyL0pnOWT2aG-2" target="3nuBFxr9cyL0pnOWT2aG-6" edge="1">
          <mxGeometry relative="1" as="geometry">
            <mxPoint x="310" y="160" as="sourcePoint" />
          </mxGeometry>
        </mxCell>
        <mxCell id="3nuBFxr9cyL0pnOWT2aG-9" value="PostMessage: dtIsReady" style="verticalAlign=middle;endArrow=block;entryX=1;entryY=0;shadow=0;strokeWidth=1;exitX=0.1;exitY=0.96;exitDx=0;exitDy=0;exitPerimeter=0;" parent="1" source="3nuBFxr9cyL0pnOWT2aG-6" target="3nuBFxr9cyL0pnOWT2aG-4" edge="1">
          <mxGeometry relative="1" as="geometry">
            <mxPoint x="275" y="200" as="sourcePoint" />
          </mxGeometry>
        </mxCell>
        <mxCell id="G4In2oabSauwJ9rI7CYD-1" value="用户" style="shape=umlActor;verticalLabelPosition=bottom;verticalAlign=top;html=1;outlineConnect=0;" parent="1" vertex="1">
          <mxGeometry x="50" y="120" width="30" height="60" as="geometry" />
        </mxCell>
        <mxCell id="G4In2oabSauwJ9rI7CYD-2" value="素材库" style="shape=umlLifeline;perimeter=lifelinePerimeter;container=1;collapsible=0;recursiveResize=0;rounded=0;shadow=0;strokeWidth=1;" parent="1" vertex="1">
          <mxGeometry x="540" y="80" width="100" height="510" as="geometry" />
        </mxCell>
        <mxCell id="G4In2oabSauwJ9rI7CYD-3" value="xkFile =&gt;buildingSingle" style="points=[];perimeter=orthogonalPerimeter;rounded=0;shadow=0;strokeWidth=1;align=left;spacingLeft=9;" parent="G4In2oabSauwJ9rI7CYD-2" vertex="1">
          <mxGeometry x="45" y="412" width="10" height="50" as="geometry" />
        </mxCell>
        <mxCell id="3nuBFxr9cyL0pnOWT2aG-3" value="开始单体编辑" style="verticalAlign=bottom;startArrow=oval;endArrow=block;startSize=8;shadow=0;strokeWidth=1;" parent="1" source="G4In2oabSauwJ9rI7CYD-1" target="3nuBFxr9cyL0pnOWT2aG-2" edge="1">
          <mxGeometry relative="1" as="geometry">
            <mxPoint x="130" y="150" as="sourcePoint" />
          </mxGeometry>
        </mxCell>
        <mxCell id="G4In2oabSauwJ9rI7CYD-9" value="PostMessage: dtProject" style="verticalAlign=middle;endArrow=block;entryX=0.1;entryY=0.02;shadow=0;strokeWidth=1;exitX=1;exitY=0.98;exitDx=0;exitDy=0;exitPerimeter=0;entryDx=0;entryDy=0;entryPerimeter=0;" parent="1" source="3nuBFxr9cyL0pnOWT2aG-4" target="G4In2oabSauwJ9rI7CYD-8" edge="1">
          <mxGeometry relative="1" as="geometry">
            <mxPoint x="210" y="300.975" as="sourcePoint" />
            <mxPoint x="468" y="300" as="targetPoint" />
          </mxGeometry>
        </mxCell>
        <mxCell id="G4In2oabSauwJ9rI7CYD-13" style="edgeStyle=orthogonalEdgeStyle;rounded=0;orthogonalLoop=1;jettySize=auto;html=1;entryX=-0.2;entryY=0.483;entryDx=0;entryDy=0;entryPerimeter=0;" parent="1" source="G4In2oabSauwJ9rI7CYD-12" target="G4In2oabSauwJ9rI7CYD-11" edge="1">
          <mxGeometry relative="1" as="geometry" />
        </mxCell>
        <mxCell id="G4In2oabSauwJ9rI7CYD-14" value="单体编辑操作" style="edgeLabel;html=1;align=center;verticalAlign=middle;resizable=0;points=[];" parent="G4In2oabSauwJ9rI7CYD-13" vertex="1" connectable="0">
          <mxGeometry x="-0.0645" relative="1" as="geometry">
            <mxPoint as="offset" />
          </mxGeometry>
        </mxCell>
        <mxCell id="G4In2oabSauwJ9rI7CYD-12" value="用户" style="shape=umlActor;verticalLabelPosition=bottom;verticalAlign=top;html=1;outlineConnect=0;" parent="1" vertex="1">
          <mxGeometry x="50" y="359" width="30" height="60" as="geometry" />
        </mxCell>
        <mxCell id="G4In2oabSauwJ9rI7CYD-16" value="PostMessage: xkFile" style="verticalAlign=middle;endArrow=block;entryX=1;entryY=0.02;shadow=0;strokeWidth=1;exitX=0.06;exitY=0.993;exitDx=0;exitDy=0;exitPerimeter=0;entryDx=0;entryDy=0;entryPerimeter=0;" parent="1" source="G4In2oabSauwJ9rI7CYD-8" target="G4In2oabSauwJ9rI7CYD-15" edge="1">
          <mxGeometry relative="1" as="geometry">
            <mxPoint x="280" y="530" as="sourcePoint" />
            <mxPoint x="535" y="534" as="targetPoint" />
          </mxGeometry>
        </mxCell>
        <mxCell id="G4In2oabSauwJ9rI7CYD-17" value="" style="endArrow=classic;html=1;rounded=0;exitX=1;exitY=1;exitDx=0;exitDy=0;exitPerimeter=0;entryX=0;entryY=0;entryDx=0;entryDy=0;entryPerimeter=0;" parent="1" source="G4In2oabSauwJ9rI7CYD-15" target="G4In2oabSauwJ9rI7CYD-3" edge="1">
          <mxGeometry width="50" height="50" relative="1" as="geometry">
            <mxPoint x="207" y="492.01" as="sourcePoint" />
            <mxPoint x="684" y="492" as="targetPoint" />
          </mxGeometry>
        </mxCell>
        <mxCell id="G4In2oabSauwJ9rI7CYD-19" value="xkFile" style="edgeLabel;html=1;align=center;verticalAlign=middle;resizable=0;points=[];" parent="G4In2oabSauwJ9rI7CYD-17" vertex="1" connectable="0">
          <mxGeometry x="-0.0085" y="2" relative="1" as="geometry">
            <mxPoint as="offset" />
          </mxGeometry>
        </mxCell>
        <mxCell id="G4In2oabSauwJ9rI7CYD-21" value="" style="endArrow=classic;html=1;rounded=0;exitX=0;exitY=1;exitDx=0;exitDy=0;exitPerimeter=0;entryX=1;entryY=0;entryDx=0;entryDy=0;entryPerimeter=0;" parent="1" source="G4In2oabSauwJ9rI7CYD-3" target="G4In2oabSauwJ9rI7CYD-20" edge="1">
          <mxGeometry width="50" height="50" relative="1" as="geometry">
            <mxPoint x="140" y="700" as="sourcePoint" />
            <mxPoint x="515" y="702" as="targetPoint" />
          </mxGeometry>
        </mxCell>
        <mxCell id="G4In2oabSauwJ9rI7CYD-22" value="buildingSingle" style="edgeLabel;html=1;align=center;verticalAlign=middle;resizable=0;points=[];" parent="G4In2oabSauwJ9rI7CYD-21" vertex="1" connectable="0">
          <mxGeometry x="-0.0085" y="2" relative="1" as="geometry">
            <mxPoint as="offset" />
          </mxGeometry>
        </mxCell>
        <mxCell id="G4In2oabSauwJ9rI7CYD-23" value="Version.20220513" style="rounded=0;whiteSpace=wrap;html=1;labelBorderColor=none;fontSize=13;fillColor=none;" parent="1" vertex="1">
          <mxGeometry x="10" y="10" width="120" height="30" as="geometry" />
        </mxCell>
      </root>
    </mxGraphModel>
  </diagram>
</mxfile>
